<svg enable-background="new 0 0 140 140" height="512" viewBox="0 0 140 140" width="512"
     xmlns="http://www.w3.org/2000/svg">
    <path d="m134 70.0000305c0 .8999634-.0199585 1.789978-.0599976 2.6699829-1.3800049 33.6399536-28.7199707 60.5799561-62.5299683 61.3099976-.4700317.0099487-.9400024.0199585-1.4100342.0199585-35.3399658 0-64-28.6599731-64-63.999939 0-35.3500366 28.6600342-64 64-64 35.3500367 0 64.0000001 28.6499634 64.0000001 64z"
          fill="#ea8953"/>
    <path d="m49.6600342 61.8000183v2.8200073h-12.6600342c-1.5799561 0-2.8699951 1.289978-2.8699951 2.8699951v28.0499878c0 .1999512.0200195.3899536.0599976.5799561.0200195.1100464.0499878.2200317.0900269.3200073.0599976.1900024.1499634.3699951.25.5400391.0499878.0899658.0999756.1699829.1599731.25.1199951.1499634.25.2999878.4000244.4299927l36.3200073 36.3200073c33.8099976-.7300415 61.1499634-27.6700439 62.5299683-61.3099976l-29.9400025-29.9400024-.039978-.0400391c-.0999756-.1299438-.210022-.2399902-.3300171-.3499756-.25-.210022-.539978-.3499756-.8599854-.4299927-.0800171-.0200195-.1599731-.0300293-.25-.039978-.0800171-.0100098-.1599731-.0200195-.25-.0200195h-50.460022c-1.1900024 0-2.1499634.9699707-2.1499634 2.1500244v12.0999756c0 .1400146.0100098.2700195.039978.4000244.0200195.1299438.0599976.25.1099854.3699951.0400391.1199951.1000366.2399902.1700439.3499756.0700073.0999756.1499634.2000122.2299805.2999878v.0100098c.0700073.0800171.1500244.1599731.2299805.2299805l1.8800049 1.8900146h-.5100098c-1.1900024 0-2.1499633.9700317-2.1499633 2.1500244z"
          opacity=".1"/>
    <path d="m52.633293 55.976204h48.807602v26.172142h-48.807602z" fill="#474c5b"/>
    <path d="m102.2657166 41.8525085h-50.4572525c-1.18787 0-2.1509361.9630241-2.1509361 2.1509399v12.0964699c0 1.1879539.9630661 2.1509781 2.1509361 2.1509781h50.4572525c1.1879578 0 2.1509399-.9630241 2.1509399-2.1509781v-12.0964698c0-1.1879158-.9629822-2.15094-2.1509399-2.15094z"
          fill="#3a556a"/>
    <g fill="#2f4859">
        <path d="m54.461422 45.4330978v.5497818h-1.6813698v1.6768113h-.5498085v-2.2265931z"/>
        <path d="m57.929203 45.4330978v.5497818h-1.6813659v1.6768113h-.5498124v-2.2265931z"/>
        <path d="m61.3969879 45.4330978v.5497818h-1.6813698v1.6768113h-.5498085v-2.2265931z"/>
        <path d="m64.864769 45.4330978v.5497818h-1.681366v1.6768113h-.5498123v-2.2265931z"/>
        <path d="m68.3325577 45.4330978v.5497818h-1.6813736v1.6768113h-.5498123v-2.2265931z"/>
        <path d="m71.8003387 45.4330978v.5497818h-1.6813659v1.6768113h-.5498123v-2.2265931z"/>
        <path d="m75.2681198 45.4330978v.5497818h-1.681366v1.6768113h-.5498123v-2.2265931z"/>
        <path d="m78.7359009 45.4330978v.5497818h-1.681366v1.6768113h-.5498123v-2.2265931z"/>
        <path d="m54.461422 48.9384079v.5497818h-1.6813698v1.6768112h-.5498085v-2.226593z"/>
        <path d="m57.929203 48.9384079v.5497818h-1.6813659v1.6768112h-.5498124v-2.226593z"/>
        <path d="m61.3969879 48.9384079v.5497818h-1.6813698v1.6768112h-.5498085v-2.226593z"/>
        <path d="m64.864769 48.9384079v.5497818h-1.681366v1.6768112h-.5498123v-2.226593z"/>
        <path d="m68.3325577 48.9384079v.5497818h-1.6813736v1.6768112h-.5498123v-2.226593z"/>
        <path d="m71.8003387 48.9384079v.5497818h-1.6813659v1.6768112h-.5498123v-2.226593z"/>
        <path d="m75.2681198 48.9384079v.5497818h-1.681366v1.6768112h-.5498123v-2.226593z"/>
        <path d="m78.7359009 48.9384079v.5497818h-1.681366v1.6768112h-.5498123v-2.226593z"/>
        <path d="m54.461422 52.4437141v.5497857h-1.6813698v1.6768074h-.5498085v-2.2265931z"/>
        <path d="m57.929203 52.4437141v.5497857h-1.6813659v1.6768074h-.5498124v-2.2265931z"/>
        <path d="m61.3969879 52.4437141v.5497857h-1.6813698v1.6768074h-.5498085v-2.2265931z"/>
        <path d="m64.864769 52.4437141v.5497857h-1.681366v1.6768074h-.5498123v-2.2265931z"/>
        <path d="m68.3325577 52.4437141v.5497857h-1.6813736v1.6768074h-.5498123v-2.2265931z"/>
        <path d="m71.8003387 52.4437141v.5497857h-1.6813659v1.6768074h-.5498123v-2.2265931z"/>
        <path d="m75.2681198 52.4437141v.5497857h-1.681366v1.6768074h-.5498123v-2.2265931z"/>
        <path d="m78.7359009 52.4437141v.5497857h-1.681366v1.6768074h-.5498123v-2.2265931z"/>
    </g>
    <path d="m86.8500137 47.3902817c-1.4699554 0-2.6614456 1.1915703-2.6614456 2.6614418s1.1914902 2.6614037 2.6614456 2.6614037c1.4698639 0 2.6613541-1.1915321 2.6613541-2.6614037s-1.1914902-2.6614418-2.6613541-2.6614418z"
          fill="#27a2db"/>
    <path d="m96.1070404 47.3902817c-1.4699554 0-2.6614456 1.1915703-2.6614456 2.6614418s1.1914902 2.6614037 2.6614456 2.6614037c1.4698715 0 2.6613541-1.1915321 2.6613541-2.6614037s-1.1914826-2.6614418-2.6613541-2.6614418z"
          fill="#e56353"/>
    <path d="m102.2657166 59.6534843h-50.4572525c-1.18787 0-2.1509361.9630241-2.1509361 2.1509399v12.0964699c0 1.1879578.9630661 2.1509781 2.1509361 2.1509781h50.4572525c1.1879578 0 2.1509399-.9630203 2.1509399-2.1509781v-12.0964698c0-1.1879158-.9629822-2.15094-2.1509399-2.15094z"
          fill="#3a556a"/>
    <g fill="#2f4859">
        <path d="m54.461422 63.2340736v.5497857h-1.6813698v1.6768112h-.5498085v-2.2265969z"/>
        <path d="m57.929203 63.2340736v.5497857h-1.6813659v1.6768112h-.5498124v-2.2265969z"/>
        <path d="m61.3969879 63.2340736v.5497857h-1.6813698v1.6768112h-.5498085v-2.2265969z"/>
        <path d="m64.864769 63.2340736v.5497857h-1.681366v1.6768112h-.5498123v-2.2265969z"/>
        <path d="m68.3325577 63.2340736v.5497857h-1.6813736v1.6768112h-.5498123v-2.2265969z"/>
        <path d="m71.8003387 63.2340736v.5497857h-1.6813659v1.6768112h-.5498123v-2.2265969z"/>
        <path d="m75.2681198 63.2340736v.5497857h-1.681366v1.6768112h-.5498123v-2.2265969z"/>
        <path d="m78.7359009 63.2340736v.5497857h-1.681366v1.6768112h-.5498123v-2.2265969z"/>
        <path d="m54.461422 66.7393799v.5497894h-1.6813698v1.6768036h-.5498085v-2.226593z"/>
        <path d="m57.929203 66.7393799v.5497894h-1.6813659v1.6768036h-.5498124v-2.226593z"/>
        <path d="m61.3969879 66.7393799v.5497894h-1.6813698v1.6768036h-.5498085v-2.226593z"/>
        <path d="m64.864769 66.7393799v.5497894h-1.681366v1.6768036h-.5498123v-2.226593z"/>
        <path d="m68.3325577 66.7393799v.5497894h-1.6813736v1.6768036h-.5498123v-2.226593z"/>
        <path d="m71.8003387 66.7393799v.5497894h-1.6813659v1.6768036h-.5498123v-2.226593z"/>
        <path d="m75.2681198 66.7393799v.5497894h-1.681366v1.6768036h-.5498123v-2.226593z"/>
        <path d="m78.7359009 66.7393799v.5497894h-1.681366v1.6768036h-.5498123v-2.226593z"/>
        <path d="m54.461422 70.2446899v.5497818h-1.6813698v1.6768113h-.5498085v-2.2265931z"/>
        <path d="m57.929203 70.2446899v.5497818h-1.6813659v1.6768113h-.5498124v-2.2265931z"/>
        <path d="m61.3969879 70.2446899v.5497818h-1.6813698v1.6768113h-.5498085v-2.2265931z"/>
        <path d="m64.864769 70.2446899v.5497818h-1.681366v1.6768113h-.5498123v-2.2265931z"/>
        <path d="m68.3325577 70.2446899v.5497818h-1.6813736v1.6768113h-.5498123v-2.2265931z"/>
        <path d="m71.8003387 70.2446899v.5497818h-1.6813659v1.6768113h-.5498123v-2.2265931z"/>
        <path d="m75.2681198 70.2446899v.5497818h-1.681366v1.6768113h-.5498123v-2.2265931z"/>
        <path d="m78.7359009 70.2446899v.5497818h-1.681366v1.6768113h-.5498123v-2.2265931z"/>
    </g>
    <path d="m86.8500137 65.1912537c-1.4699554 0-2.6614456 1.1915741-2.6614456 2.6614456s1.1914902 2.6613998 2.6614456 2.6613998c1.4698639 0 2.6613541-1.1915283 2.6613541-2.6613998s-1.1914902-2.6614456-2.6613541-2.6614456z"
          fill="#27a2db"/>
    <path d="m96.1070404 65.1912537c-1.4699554 0-2.6614456 1.1915741-2.6614456 2.6614456s1.1914902 2.6613998 2.6614456 2.6613998c1.4698715 0 2.6613541-1.1915283 2.6613541-2.6613998s-1.1914826-2.6614456-2.6613541-2.6614456z"
          fill="#e56353"/>
    <path d="m102.2657166 77.4544601h-50.4572525c-1.18787 0-2.1509361.963028-2.1509361 2.1509399v12.0964661c0 1.1879578.9630661 2.1509857 2.1509361 2.1509857h50.4572525c1.1879578 0 2.1509399-.963028 2.1509399-2.1509857v-12.096466c0-1.187912-.9629822-2.15094-2.1509399-2.15094z"
          fill="#3a556a"/>
    <path d="m54.461422 81.0350494v.5497818h-1.6813698v1.6768113h-.5498085v-2.2265931z" fill="#2f4859"/>
    <path d="m57.929203 81.0350494v.5497818h-1.6813659v1.6768113h-.5498124v-2.2265931z" fill="#2f4859"/>
    <path d="m61.3969879 81.0350494v.5497818h-1.6813698v1.6768113h-.5498085v-2.2265931z" fill="#2f4859"/>
    <path d="m64.864769 81.0350494v.5497818h-1.681366v1.6768113h-.5498123v-2.2265931z" fill="#2f4859"/>
    <path d="m68.3325577 81.0350494v.5497818h-1.6813736v1.6768113h-.5498123v-2.2265931z" fill="#2f4859"/>
    <path d="m71.8003387 81.0350494v.5497818h-1.6813659v1.6768113h-.5498123v-2.2265931z" fill="#2f4859"/>
    <path d="m75.2681198 81.0350494v.5497818h-1.681366v1.6768113h-.5498123v-2.2265931z" fill="#2f4859"/>
    <path d="m78.7359009 81.0350494v.5497818h-1.681366v1.6768113h-.5498123v-2.2265931z" fill="#2f4859"/>
    <path d="m54.461422 84.5403595v.5497818h-1.6813698v1.6768112h-.5498085v-2.226593z" fill="#2f4859"/>
    <path d="m57.929203 84.5403595v.5497818h-1.6813659v1.6768112h-.5498124v-2.226593z" fill="#2f4859"/>
    <path d="m61.3969879 84.5403595v.5497818h-1.6813698v1.6768112h-.5498085v-2.226593z" fill="#2f4859"/>
    <path d="m64.864769 84.5403595v.5497818h-1.681366v1.6768112h-.5498123v-2.226593z" fill="#2f4859"/>
    <path d="m68.3325577 84.5403595v.5497818h-1.6813736v1.6768112h-.5498123v-2.226593z" fill="#2f4859"/>
    <path d="m71.8003387 84.5403595v.5497818h-1.6813659v1.6768112h-.5498123v-2.226593z" fill="#2f4859"/>
    <path d="m75.2681198 84.5403595v.5497818h-1.681366v1.6768112h-.5498123v-2.226593z" fill="#2f4859"/>
    <path d="m78.7359009 84.5403595v.5497818h-1.681366v1.6768112h-.5498123v-2.226593z" fill="#2f4859"/>
    <path d="m54.461422 88.0456696v.5497818h-1.6813698v1.6768112h-.5498085v-2.226593z" fill="#2f4859"/>
    <path d="m57.929203 88.0456696v.5497818h-1.6813659v1.6768112h-.5498124v-2.226593z" fill="#2f4859"/>
    <path d="m61.3969879 88.0456696v.5497818h-1.6813698v1.6768112h-.5498085v-2.226593z" fill="#2f4859"/>
    <path d="m64.864769 88.0456696v.5497818h-1.681366v1.6768112h-.5498123v-2.226593z" fill="#2f4859"/>
    <path d="m68.3325577 88.0456696v.5497818h-1.6813736v1.6768112h-.5498123v-2.226593z" fill="#2f4859"/>
    <path d="m71.8003387 88.0456696v.5497818h-1.6813659v1.6768112h-.5498123v-2.226593z" fill="#2f4859"/>
    <path d="m75.2681198 88.0456696v.5497818h-1.681366v1.6768112h-.5498123v-2.226593z" fill="#2f4859"/>
    <path d="m78.7359009 88.0456696v.5497818h-1.681366v1.6768112h-.5498123v-2.226593z" fill="#2f4859"/>
    <path d="m86.8500137 82.9922333c-1.4699554 0-2.6614456 1.1915741-2.6614456 2.6614456s1.1914902 2.6613998 2.6614456 2.6613998c1.4698639 0 2.6613541-1.1915283 2.6613541-2.6613998s-1.1914902-2.6614456-2.6613541-2.6614456z"
          fill="#27a2db"/>
    <path d="m96.1070404 82.9922333c-1.4699554 0-2.6614456 1.1915741-2.6614456 2.6614456s1.1914902 2.6613998 2.6614456 2.6613998c1.4698715 0 2.6613541-1.1915283 2.6613541-2.6613998s-1.1914826-2.6614456-2.6613541-2.6614456z"
          fill="#e56353"/>
    <path d="m68.9298325 64.6208954h-31.9271889c-1.5853615 0-2.8705406 1.2852097-2.8705406 2.8705368v28.0441971c0 1.5853653 1.2851791 2.8705368 2.8705406 2.8705368h31.9271889c1.5853271 0 2.8705063-1.2851715 2.8705063-2.8705368v-28.0441971c-.0000001-1.5853272-1.2851792-2.8705368-2.8705063-2.8705368z"
          fill="#ebf0f3"/>
    <path d="m71.8003387 72.1708374v-4.6794052c0-1.5853271-1.2851791-2.8705368-2.8705063-2.8705368h-31.9271888c-1.5853615 0-2.8705406 1.2852097-2.8705406 2.8705368v4.6794052z"
          fill="#44c4a1"/>
    <path d="m65.9500427 67.1549911c-.6852646 0-1.2408218.5555649-1.2408218 1.2408905 0 .6853027.5555573 1.24086 1.2408218 1.24086.6853333 0 1.2408905-.5555573 1.2408905-1.24086 0-.6853256-.5555572-1.2408905-1.2408905-1.2408905z"
          fill="#ebf0f3"/>
    <path d="m61.354538 67.1549911c-.6852646 0-1.2408218.5555649-1.2408218 1.2408905 0 .6853027.5555573 1.24086 1.2408218 1.24086.6853333 0 1.2408905-.5555573 1.2408905-1.24086 0-.6853256-.5555573-1.2408905-1.2408905-1.2408905z"
          fill="#ebf0f3"/>
    <path d="m56.7590332 67.1549911c-.6852646 0-1.2408257.5555649-1.2408257 1.2408905 0 .6853027.5555611 1.24086 1.2408257 1.24086.6853294 0 1.2408867-.5555573 1.2408867-1.24086 0-.6853256-.5555573-1.2408905-1.2408867-1.2408905z"
          fill="#ebf0f3"/>
    <ellipse cx="52.966" cy="85.058" fill="#fcd462" rx="8.288" ry="8.288"
             transform="matrix(.957 -.29 .29 .957 -22.376 18.998)"/>
    <path d="m52.069618 79.724495h1.793207v7.770562h-1.793207z" fill="#3a556a"/>
    <path d="m52.069618 88.598518h1.793207v1.793207h-1.793207z" fill="#3a556a"/>
</svg>
