<svg id="Layer_1" enable-background="new 0 0 512 512" height="512" viewBox="0 0 512 512" width="512"
     xmlns="http://www.w3.org/2000/svg">
    <g>
        <g>
            <path d="m7.5 119.404c-4.143 0-7.5-3.357-7.5-7.5v-88.333c0-12.997 10.561-23.571 23.542-23.571h88.362c4.143 0 7.5 3.357 7.5 7.5s-3.357 7.5-7.5 7.5h-88.362c-4.71 0-8.542 3.845-8.542 8.571v88.333c0 4.143-3.357 7.5-7.5 7.5z"
                  fill="#566b74"/>
        </g>
        <g>
            <path d="m504.5 119.404c-4.143 0-7.5-3.357-7.5-7.5v-88.333c0-4.727-3.832-8.571-8.542-8.571h-88.362c-4.143 0-7.5-3.357-7.5-7.5s3.357-7.5 7.5-7.5h88.362c12.981 0 23.542 10.574 23.542 23.571v88.333c0 4.143-3.357 7.5-7.5 7.5z"
                  fill="#566b74"/>
        </g>
        <g>
            <path d="m111.904 512h-88.362c-12.981 0-23.542-10.561-23.542-23.542v-88.362c0-4.143 3.357-7.5 7.5-7.5s7.5 3.357 7.5 7.5v88.362c0 4.71 3.832 8.542 8.542 8.542h88.362c4.143 0 7.5 3.357 7.5 7.5s-3.357 7.5-7.5 7.5z"
                  fill="#566b74"/>
        </g>
        <g>
            <path d="m488.458 512h-88.362c-4.143 0-7.5-3.357-7.5-7.5s3.357-7.5 7.5-7.5h88.362c4.71 0 8.542-3.832 8.542-8.542v-88.362c0-4.143 3.357-7.5 7.5-7.5s7.5 3.357 7.5 7.5v88.362c0 12.981-10.561 23.542-23.542 23.542z"
                  fill="#566b74"/>
        </g>
        <g>
            <path clip-rule="evenodd"
                  d="m256 469.241c117.444 0 213.241-95.797 213.241-213.241s-95.797-213.241-213.241-213.241-213.241 95.797-213.241 213.241 95.797 213.241 213.241 213.241z"
                  fill="#b1d7fe" fill-rule="evenodd"/>
        </g>
        <g>
            <path clip-rule="evenodd"
                  d="m256 469.241c117.759 0 213.241-95.482 213.241-213.241s-95.482-213.241-213.241-213.241c-37.489 0-72.691 9.665-103.289 26.652 25.708 8.493 49.271 21.733 69.603 38.69 114.184 95.225 102.631 275.094-33.171 350.445 21.017 6.949 43.494 10.695 66.857 10.695z"
                  fill="#8bc6f8" fill-rule="evenodd"/>
        </g>
        <g>
            <path d="m378.935 377.255c-4.143 0-7.5-3.357-7.5-7.5v-143.409c0-63.65-51.784-115.435-115.435-115.435s-115.435 51.784-115.435 115.435v143.409c0 4.143-3.357 7.5-7.5 7.5s-7.5-3.357-7.5-7.5v-143.409c0-71.922 58.513-130.435 130.435-130.435s130.435 58.513 130.435 130.435v143.409c0 4.142-3.358 7.5-7.5 7.5zm-40.979 0c-4.143 0-7.5-3.357-7.5-7.5v-143.409c0-41.056-33.4-74.456-74.456-74.456s-74.456 33.4-74.456 74.456v10.752c0 4.143-3.357 7.5-7.5 7.5s-7.5-3.357-7.5-7.5v-10.752c0-49.326 40.13-89.456 89.456-89.456s89.456 40.13 89.456 89.456v143.409c0 4.142-3.357 7.5-7.5 7.5zm-40.977 0c-4.143 0-7.5-3.357-7.5-7.5v-143.409c0-18.46-15.019-33.478-33.479-33.478s-33.479 15.018-33.479 33.478v143.409c0 4.143-3.357 7.5-7.5 7.5s-7.5-3.357-7.5-7.5v-143.409c0-26.73 21.747-48.478 48.479-48.478s48.479 21.747 48.479 48.478v143.409c0 4.142-3.358 7.5-7.5 7.5zm-40.979 0c-4.143 0-7.5-3.357-7.5-7.5v-22.305c0-4.143 3.357-7.5 7.5-7.5s7.5 3.357 7.5 7.5v22.305c0 4.142-3.357 7.5-7.5 7.5zm-81.956 0c-4.143 0-7.5-3.357-7.5-7.5v-90.105c0-4.143 3.357-7.5 7.5-7.5s7.5 3.357 7.5 7.5v90.105c0 4.142-3.357 7.5-7.5 7.5zm81.956-63.283c-4.143 0-7.5-3.357-7.5-7.5v-80.126c0-4.143 3.357-7.5 7.5-7.5s7.5 3.357 7.5 7.5v80.126c0 4.142-3.357 7.5-7.5 7.5z"
                  fill="#566b74"/>
        </g>
    </g>
</svg>
